#N canvas 393 79 887 693 12;
#X obj 78 162 r playSound;
#X obj 401 166 r stopSound;
#X obj 151 18 r loadSound;
#X obj 151 79 soundfiler;
#X obj 551 15 array define array-0;
#X obj 551 36 array define array-1;
#X obj 551 57 array define array-2;
#X obj 551 78 array define array-3;
#X obj 551 99 array define array-4;
#X obj 226 261 route 0 1 2 3 4;
#X obj 225 312 tabplay~ array-0;
#X obj 249 341 tabplay~ array-1;
#X obj 262 371 tabplay~ array-2;
#X obj 274 397 tabplay~ array-3;
#X obj 284 420 tabplay~ array-4;
#X msg 351 199 \$1 stop;
#X msg 151 50 read -resize \$2 array-\$1;
#X text 251 20 Receives [ID filename(;
#X text 105 139 Receives [ID(;
#X text 369 142 Receives [ID(;
#X obj 233 523 dac~;
#X obj 241 483 +~;
#X msg 78 191 \$1 bang;
#X obj 516 650 s bela_arduino;
#X obj 519 377 + 1;
#X obj 517 343 f;
#X obj 489 303 select 0;
#X obj 624 385 + 1;
#X obj 624 352 f;
#X obj 596 312 select 0;
#X obj 622 426 t b f;
#X obj 518 512 pack f f;
#X obj 644 512 f;
#X text 474 555 list of floats;
#X text 201 600 a typed message whose arguments are floats;
#X msg 395 509 played \$1 123;
#X text 539 605 a float;
#X text 308 556 You can send:;
#X text 446 269 Count how many times table 0 has started/stopped;
#X connect 0 0 22 0;
#X connect 0 0 26 0;
#X connect 1 0 15 0;
#X connect 1 0 29 0;
#X connect 2 0 16 0;
#X connect 9 0 10 0;
#X connect 9 1 11 0;
#X connect 9 2 12 0;
#X connect 9 3 13 0;
#X connect 9 4 14 0;
#X connect 10 0 21 0;
#X connect 11 0 21 0;
#X connect 12 0 21 0;
#X connect 13 0 21 0;
#X connect 14 0 21 0;
#X connect 15 0 9 0;
#X connect 16 0 3 0;
#X connect 21 0 20 0;
#X connect 21 0 20 1;
#X connect 22 0 9 0;
#X connect 24 0 25 1;
#X connect 24 0 35 0;
#X connect 24 0 31 0;
#X connect 25 0 24 0;
#X connect 26 0 25 0;
#X connect 27 0 28 1;
#X connect 27 0 30 0;
#X connect 27 0 32 0;
#X connect 28 0 27 0;
#X connect 29 0 28 0;
#X connect 30 0 31 0;
#X connect 30 1 31 1;
#X connect 31 0 23 0;
#X connect 32 0 23 0;
#X connect 35 0 23 0;
